<?xml version="1.0" encoding="UTF-8" standalone="no"?>
<svg
   xmlns:dc="http://purl.org/dc/elements/1.1/"
   xmlns:cc="http://creativecommons.org/ns#"
   xmlns:rdf="http://www.w3.org/1999/02/22-rdf-syntax-ns#"
   xmlns:svg="http://www.w3.org/2000/svg"
   xmlns="http://www.w3.org/2000/svg"
   xmlns:sodipodi="http://sodipodi.sourceforge.net/DTD/sodipodi-0.dtd"
   xmlns:inkscape="http://www.inkscape.org/namespaces/inkscape"
   version="1.1"
   id="Layer_1"
   x="0px"
   y="0px"
   width="100%"
   height="100%"
   viewBox="0 0 612 396"
   enable-background="new 0 0 612 792"
   xml:space="preserve"
   inkscape:version="0.48.2 r9819"
   sodipodi:docname="bullhorn.png"><metadata
   id="metadata3145"><rdf:RDF><cc:Work
       rdf:about=""><dc:format>image/svg+xml</dc:format><dc:type
         rdf:resource="http://purl.org/dc/dcmitype/StillImage" /><dc:title></dc:title></cc:Work></rdf:RDF></metadata><defs
   id="defs3143">
</defs><sodipodi:namedview
   pagecolor="#ffffff"
   bordercolor="#666666"
   borderopacity="1"
   objecttolerance="10"
   gridtolerance="10"
   guidetolerance="10"
   inkscape:pageopacity="0"
   inkscape:pageshadow="2"
   inkscape:window-width="1566"
   inkscape:window-height="851"
   id="namedview3141"
   showgrid="false"
   inkscape:zoom="4.72"
   inkscape:cx="44.679987"
   inkscape:cy="61.506958"
   inkscape:window-x="0"
   inkscape:window-y="0"
   inkscape:window-maximized="0"
   inkscape:current-layer="Layer_1" />
<g
   id="g3137"
   transform="matrix(2.7605236,0,0,2.1502266,-508.01617,-547.9592)">
	<path
   d="m 335.799,292.001 v 92.398 c 0,3 -2.6,5.4 -5.8,5.4 -3.199,0 -5.6,-2.4 -5.6,-5.4 C 315,372.8 298.399,358 273.601,358 h -10.2 l 22.399,37.799 -13.6,9.8 c -3.4,1.799 -7,-0.4 -9,-2.801 L 235.4,358 h -14.999 c 0,0 -14,-7.6 -14,-19.6 0,-12 14,-18.8 14,-18.8 H 273.6 c 24.799,0 41.399,-15.4 50.799,-27.6 0,-3 2.4,-5.4 5.6,-5.4 3.2,10e-4 5.8,2.401 5.8,5.401 z M 245.2,332.4 c 0,-1.4 -1.199,-2.6 -2.6,-2.6 h -16 c -1.399,0 -2.8,1.2 -2.8,2.6 0,1.4 1.4,2.8 2.8,2.8 h 16 c 1.401,0 2.6,-1.4 2.6,-2.8 z m 0,11.6 c 0,-1.4 -1.199,-2.6 -2.6,-2.6 h -16 c -1.399,0 -2.8,1.2 -2.8,2.6 0,1.4 1.4,2.8 2.8,2.8 h 16 c 1.401,0 2.6,-1.4 2.6,-2.8 z m 77.4,24.4 v -60.199 c -12.4,13.2 -27.399,20.2 -46.399,20.2 V 349 c 18.999,0 33.799,6.8 46.399,19.4 z"
   id="path3139"
   inkscape:connector-curvature="0"
   style="fill:#000000" />
</g>
<g
   style="overflow:visible"
   id="g3217"
   transform="matrix(3.2461511,0,0,2.6702462,220.12352,101.01106)"><path
     id="path3209"
     d="m 76.103,12.115 c -1.788,-1.789 -4.688,-1.787 -6.477,-0.002 -1.789,1.789 -1.789,4.688 -0.002,6.477 3.315,3.316 5.142,7.725 5.142,12.413 0,4.688 -1.826,9.099 -5.142,12.412 -1.787,1.788 -1.787,4.69 0.002,6.479 0.895,0.89 2.065,1.337 3.237,1.337 1.172,0 2.346,-0.447 3.239,-1.341 5.044,-5.049 7.821,-11.755 7.821,-18.887 0.001,-7.132 -2.777,-13.839 -7.82,-18.888 z"
     inkscape:connector-curvature="0" /><path
     id="path3211"
     d="m 86.875,1.341 c -1.789,-1.789 -4.687,-1.789 -6.475,0 -1.789,1.786 -1.789,4.686 0,6.475 6.192,6.195 9.603,14.43 9.603,23.187 0,8.759 -3.41,16.99 -9.603,23.188 -1.789,1.788 -1.789,4.686 0,6.475 0.894,0.894 2.065,1.341 3.237,1.341 1.171,0 2.345,-0.447 3.237,-1.341 C 94.797,52.737 99.159,42.207 99.159,31.003 99.16,19.799 94.798,9.267 86.875,1.341 z"
     inkscape:connector-curvature="0" /></g></svg>
