<?xml version="1.0" encoding="UTF-8" standalone="no"?>
<svg
   xmlns:dc="http://purl.org/dc/elements/1.1/"
   xmlns:cc="http://creativecommons.org/ns#"
   xmlns:rdf="http://www.w3.org/1999/02/22-rdf-syntax-ns#"
   xmlns:svg="http://www.w3.org/2000/svg"
   xmlns="http://www.w3.org/2000/svg"
   xmlns:sodipodi="http://sodipodi.sourceforge.net/DTD/sodipodi-0.dtd"
   xmlns:inkscape="http://www.inkscape.org/namespaces/inkscape"
   version="1.1"
   id="Layer_1"
   x="0px"
   y="0px"
   width="100%"
   height="100%"
   viewBox="0 0 612 396"
   enable-background="new 0 0 612 792"
   xml:space="preserve"
   inkscape:version="0.48.2 r9819"
   sodipodi:docname="ticket3.svg"><metadata
   id="metadata3145"><rdf:RDF><cc:Work
       rdf:about=""><dc:format>image/svg+xml</dc:format><dc:type
         rdf:resource="http://purl.org/dc/dcmitype/StillImage" /><dc:title></dc:title></cc:Work></rdf:RDF></metadata><defs
   id="defs3143">
</defs><sodipodi:namedview
   pagecolor="#ffffff"
   bordercolor="#666666"
   borderopacity="1"
   objecttolerance="10"
   gridtolerance="10"
   guidetolerance="10"
   inkscape:pageopacity="0"
   inkscape:pageshadow="2"
   inkscape:window-width="1566"
   inkscape:window-height="851"
   id="namedview3141"
   showgrid="false"
   inkscape:zoom="4.72"
   inkscape:cx="44.679987"
   inkscape:cy="40.781913"
   inkscape:window-x="0"
   inkscape:window-y="0"
   inkscape:window-maximized="0"
   inkscape:current-layer="Layer_1" />

<g
   id="g3386"
   transform="matrix(5.347359,0,0,5.4625818,24.595476,-66.57052)"><rect
     id="rect3376"
     height="30.768999"
     width="57.167999"
     y="34.249001"
     x="21.415001" /><path
     id="path3378"
     d="M 93.048,30.347 V 29.116 H 6.953 v 1.231 c 0.603,0 1.092,0.488 1.092,1.096 0,0.608 -0.489,1.095 -1.092,1.095 v 1.912 c 0.603,0 1.092,0.488 1.092,1.095 0,0.607 -0.489,1.096 -1.092,1.096 v 1.912 c 0.603,0 1.092,0.488 1.092,1.096 0,0.608 -0.489,1.095 -1.092,1.095 v 1.913 c 3.853,0 6.975,3.122 6.975,6.975 0,3.853 -3.123,6.976 -6.975,6.976 v 1.916 c 0.603,0 1.092,0.492 1.092,1.096 0,0.599 -0.489,1.092 -1.092,1.092 v 1.915 c 0.603,0 1.092,0.493 1.092,1.097 0,0.6 -0.489,1.092 -1.092,1.092 v 1.916 c 0.603,0 1.092,0.492 1.092,1.096 0,0.6 -0.489,1.092 -1.092,1.092 v 1.165 H 93.048 V 68.92 c -0.604,0 -1.096,-0.492 -1.096,-1.092 0,-0.604 0.491,-1.096 1.096,-1.096 v -1.916 c -0.604,0 -1.096,-0.492 -1.096,-1.092 0,-0.604 0.491,-1.097 1.096,-1.097 V 60.71 c -0.604,0 -1.096,-0.493 -1.096,-1.092 0,-0.603 0.491,-1.095 1.096,-1.095 v -1.916 c -3.854,0 -6.976,-3.123 -6.976,-6.977 0,-3.853 3.121,-6.975 6.976,-6.975 v -1.913 c -0.604,0 -1.096,-0.488 -1.096,-1.095 0,-0.607 0.491,-1.096 1.096,-1.096 V 36.64 c -0.604,0 -1.096,-0.488 -1.096,-1.096 0,-0.608 0.491,-1.095 1.096,-1.095 v -1.912 c -0.604,0 -1.096,-0.488 -1.096,-1.095 0,-0.607 0.491,-1.095 1.096,-1.095 z M 79.814,66.249 H 20.185 V 33.018 h 59.629 v 33.231 z"
     inkscape:connector-curvature="0" /></g><text
   xml:space="preserve"
   style="font-size:316.79998779px;font-style:normal;font-variant:normal;font-weight:bold;font-stretch:normal;line-height:125%;letter-spacing:0px;word-spacing:0px;fill:#ffffff;fill-opacity:1;stroke:none;font-family:Arial;-inkscape-font-specification:Arial Bold"
   x="179.54237"
   y="199.67795"
   id="text3463"
   sodipodi:linespacing="125%"><tspan
     sodipodi:role="line"
     x="179.54237"
     y="199.67795"
     id="tspan3467"
     style="font-size:71.27999878px">ADMIT</tspan></text>
<text
   xml:space="preserve"
   style="font-size:316.79998779px;font-style:normal;font-variant:normal;font-weight:bold;font-stretch:normal;line-height:125%;letter-spacing:0px;word-spacing:0px;fill:#000000;fill-opacity:1;stroke:none;font-family:Arial;-inkscape-font-specification:Arial Bold"
   x="209.74577"
   y="266.7966"
   id="text3517"
   sodipodi:linespacing="125%"><tspan
     sodipodi:role="line"
     id="tspan3519"
     x="209.74577"
     y="266.7966"
     style="font-size:71.27999878px;fill:#ffffff">ONE</tspan></text>
</svg>
